# xmcd
#
# Track frame offsets: 
#        150
#        17595
#        32813
#        49695
#        65259
#        84765
#        100009
#        119835
#        135296
#        152447
#        164593
#        181629
#        197513
#        214190
#        233158
#        249195
#
# Disc length: 3511 seconds
#
# Revision: 1
# Processed by: cddbd v1.5.2PL0 Copyright (c) Steve Scherf et al.
# Submitted via: ExactAudioCopy v1.0b3
#
DISCID=bf0db510
DTITLE=陳一郎 - 台語精選集 CD6
DYEAR=1900
DGENRE=Country
TTITLE0=媽媽請您也保重
TTITLE1=流浪之歌
TTITLE2=船頂的小姐
TTITLE3=碼頭惜別
TTITLE4=啟田純情曲
TTITLE5=悲戀的公路
TTITLE6=流浪天涯伴吉他
TTITLE7=誰人抹想起故鄉
TTITLE8=想著你的人
TTITLE9=放浪人生
TTITLE10=田莊兄哥
TTITLE11=男性的哭戀
TTITLE12=斷魂嶺鐘聲淚
TTITLE13=新娘悲歌
TTITLE14=夜夜為你失眠
TTITLE15=無聊的人生
EXTD=
EXTT0=
EXTT1=
EXTT2=
EXTT3=
EXTT4=
EXTT5=
EXTT6=
EXTT7=
EXTT8=
EXTT9=
EXTT10=
EXTT11=
EXTT12=
EXTT13=
EXTT14=
EXTT15=
PLAYORDER=
